<?xml version="1.0" standalone="no"?>
<!DOCTYPE svg PUBLIC "-//W3C//DTD SVG 20010904//EN"
 "http://www.w3.org/TR/2001/REC-SVG-20010904/DTD/svg10.dtd">
<svg version="1.0" xmlns="http://www.w3.org/2000/svg"
 width="512.000000pt" height="512.000000pt" viewBox="0 0 512.000000 512.000000"
 preserveAspectRatio="xMidYMid meet">
<metadata>
Created by potrace 1.14, written by Peter Selinger 2001-2017
</metadata>
<g transform="translate(0.000000,512.000000) scale(0.100000,-0.100000)"
fill="#000000" stroke="none">
<path d="M2660 4127 c0 -4 -4 -5 -10 -2 -5 3 -10 0 -10 -7 0 -9 -2 -10 -8 -1
-5 8 -17 6 -44 -7 -20 -10 -39 -15 -42 -13 -3 3 -12 -2 -21 -11 -9 -9 -23 -16
-31 -16 -9 0 -22 -6 -29 -12 -32 -29 -45 -38 -52 -38 -13 0 -102 -88 -96 -94
4 -3 -2 -6 -12 -6 -10 0 -16 -3 -12 -6 3 -3 -4 -17 -16 -30 -12 -13 -31 -41
-42 -61 -11 -21 -24 -41 -30 -45 -5 -4 -6 -8 -1 -8 5 0 4 -6 -1 -12 -6 -7 -13
-25 -16 -39 -5 -19 -17 -29 -45 -37 -22 -7 -47 -12 -56 -12 -11 0 -14 -5 -10
-12 4 -7 3 -8 -4 -4 -6 4 -44 -7 -83 -25 -71 -31 -82 -37 -120 -71 -10 -10
-19 -15 -19 -12 0 4 -11 -5 -25 -20 -13 -14 -30 -26 -36 -26 -7 0 -10 -3 -7
-6 3 -3 -4 -15 -16 -28 -43 -46 -89 -122 -86 -142 1 -4 -2 -10 -7 -13 -13 -10
-35 -80 -28 -91 3 -5 1 -10 -6 -10 -7 0 -9 -10 -7 -25 3 -14 2 -28 -2 -30 -12
-7 -1 -158 12 -171 4 -3 4 -12 1 -20 -3 -8 0 -14 6 -14 7 0 11 -6 10 -12 -3
-15 32 -91 44 -96 4 -2 7 -10 7 -18 0 -9 5 -12 10 -9 6 3 10 -3 10 -15 0 -12
4 -19 8 -16 4 2 17 -8 27 -24 11 -16 26 -31 34 -32 12 -3 12 -6 -2 -20 -9 -9
-17 -19 -17 -22 0 -4 -19 -25 -43 -49 -23 -23 -65 -71 -92 -106 -28 -36 -58
-74 -67 -85 -10 -12 -25 -29 -33 -38 -8 -10 -15 -22 -15 -28 0 -5 -5 -10 -11
-10 -5 0 -7 -4 -4 -10 3 -5 2 -10 -3 -10 -6 0 -24 -22 -42 -49 -17 -28 -44
-65 -60 -83 -17 -18 -30 -39 -30 -46 0 -7 -7 -15 -15 -18 -8 -4 -15 -11 -15
-16 0 -15 -102 -118 -111 -112 -5 3 -9 0 -9 -6 0 -6 -12 -16 -27 -23 -16 -6
-31 -15 -34 -20 -3 -5 -12 -10 -20 -12 -39 -9 -59 -18 -59 -28 0 -6 -3 -7 -6
-4 -4 3 -16 1 -28 -5 -11 -7 -23 -13 -26 -14 -3 0 -21 -7 -40 -15 -19 -7 -38
-12 -42 -11 -5 1 -8 -2 -8 -8 0 -6 -3 -9 -7 -8 -5 1 -18 -3 -29 -10 -12 -6
-24 -8 -28 -5 -3 3 -6 2 -6 -3 0 -5 -9 -10 -19 -11 -11 -1 -38 -11 -61 -22
-24 -11 -46 -18 -51 -16 -4 3 -9 1 -11 -5 -1 -5 -12 -11 -23 -13 -18 -4 -48
-16 -154 -64 -58 -26 -141 -120 -141 -158 0 -8 -5 -15 -11 -15 -6 0 -9 -6 -6
-14 3 -8 3 -17 -1 -20 -10 -10 -9 -106 1 -106 4 0 6 -4 3 -8 -11 -19 34 -109
80 -159 27 -29 53 -53 57 -53 4 0 20 -11 34 -24 15 -14 30 -23 35 -20 4 3 8 1
8 -4 0 -6 12 -13 27 -17 16 -5 35 -10 43 -12 36 -10 110 -8 165 5 33 8 71 16
85 17 28 5 65 13 65 15 0 3 61 11 93 13 17 1 32 4 32 7 0 5 10 7 65 11 14 1
25 4 25 8 0 3 15 7 33 8 66 5 82 8 89 18 5 6 8 5 8 -3 0 -8 5 -10 12 -6 7 5
27 9 44 9 17 1 36 5 42 9 7 4 12 3 12 -1 0 -5 11 -9 25 -9 14 0 25 4 25 9 0 4
5 5 11 1 6 -3 31 -8 56 -10 25 -2 51 -8 58 -14 6 -5 15 -7 18 -3 4 3 7 0 7 -7
0 -7 3 -11 6 -7 4 3 19 0 35 -9 16 -8 29 -11 29 -7 0 5 4 3 8 -4 8 -13 135
-50 190 -55 6 -1 12 -6 12 -11 0 -5 11 -7 25 -5 14 3 28 1 31 -4 3 -5 12 -7
20 -4 7 3 16 2 18 -3 5 -7 19 -9 94 -14 12 -1 22 -6 22 -10 0 -5 5 -5 10 -2 6
3 15 3 22 -1 7 -4 24 -8 39 -8 15 -1 31 -4 34 -8 4 -4 16 -3 26 2 12 7 20 6
24 -1 4 -6 13 -8 21 -5 8 3 14 2 14 -2 0 -4 17 -7 37 -6 21 0 46 -3 56 -8 12
-6 17 -5 17 4 0 8 3 9 8 3 11 -15 52 -17 52 -2 0 9 2 9 8 -1 6 -8 40 -13 105
-15 53 -1 97 -5 97 -9 0 -5 5 -8 11 -8 5 0 8 4 5 9 -4 5 9 6 29 1 21 -5 35 -4
35 1 0 6 9 5 20 -1 14 -8 20 -8 20 0 0 6 5 8 13 3 20 -12 37 -12 37 0 0 9 2 9
8 1 10 -15 324 -16 334 0 6 8 8 8 8 0 0 -8 11 -9 35 -4 20 4 44 7 53 5 9 -1
22 0 27 4 6 3 15 6 20 7 6 1 28 5 50 9 22 4 46 7 53 8 6 0 12 5 12 10 0 6 3 8
6 4 3 -3 25 0 49 8 24 7 46 10 49 7 4 -3 6 0 6 7 0 7 5 9 10 6 6 -4 17 -2 24
4 8 7 18 11 22 10 5 -1 16 0 24 4 8 3 38 13 65 22 28 9 58 21 68 26 10 5 22 7
27 4 6 -4 10 -2 10 4 0 6 16 13 35 17 19 3 35 10 35 14 0 8 38 23 53 21 4 -1
7 3 7 9 0 5 9 10 20 10 11 0 20 5 20 10 0 6 8 10 17 10 9 0 25 8 36 17 15 13
19 14 13 3 -4 -9 -2 -8 7 3 8 9 18 17 23 17 5 0 22 11 38 25 16 14 35 25 43
25 7 0 16 7 19 15 4 8 13 15 20 15 8 0 17 7 20 15 4 8 11 15 16 15 5 0 26 15
45 32 75 69 124 118 117 118 -4 0 2 8 12 17 11 10 33 36 50 58 28 38 34 46 61
79 6 7 9 17 6 20 -4 3 -2 6 3 6 6 0 16 16 24 35 8 19 18 35 22 35 5 0 6 5 3
10 -3 6 -1 10 4 10 6 0 10 4 9 8 -3 7 30 90 53 135 6 10 7 22 4 27 -3 5 -1 11
5 15 6 4 8 11 5 16 -4 5 -1 9 5 9 7 0 10 6 7 14 -3 8 -3 17 1 20 6 7 10 25 14
69 1 15 5 27 8 27 9 0 19 248 11 265 -3 5 -6 30 -7 55 -1 25 -3 45 -4 45 -1 0
-4 14 -6 30 -3 17 -9 41 -14 55 -6 14 -11 37 -12 53 -1 15 -6 27 -10 27 -4 0
-7 3 -6 8 3 13 -58 149 -73 162 -3 3 -12 20 -20 38 -8 17 -17 32 -21 32 -5 0
-8 7 -8 15 0 8 -5 15 -12 15 -6 0 -9 2 -6 6 7 6 -76 94 -88 94 -11 0 -39 42
-36 53 1 4 -3 7 -9 7 -6 0 5 15 24 33 56 53 86 124 90 212 1 22 7 43 12 47 7
5 6 8 0 8 -6 0 -12 15 -13 33 -5 57 -22 110 -42 122 -5 3 -8 10 -6 14 3 4 -11
24 -30 45 -19 20 -34 33 -34 29 0 -4 -8 4 -18 20 -10 15 -21 25 -24 21 -4 -3
-9 4 -13 15 -3 12 -12 21 -20 21 -7 0 -15 3 -17 8 -1 4 -23 17 -48 29 -68 33
-79 36 -154 47 -23 4 -80 46 -62 46 3 0 -5 10 -17 23 -12 13 -25 22 -28 20 -4
-1 -9 4 -13 12 -3 8 -12 15 -21 15 -8 0 -15 5 -15 11 0 5 -4 7 -10 4 -5 -3
-10 -2 -10 3 0 9 -30 23 -55 26 -5 1 -16 6 -24 10 -19 12 -181 14 -181 3 0 -4
-3 -6 -8 -3 -15 9 -148 -61 -192 -102 -25 -23 -49 -42 -53 -42 -5 0 -6 -4 -2
-9 3 -5 -3 -16 -14 -23 -11 -8 -21 -20 -23 -28 -2 -8 -11 -23 -20 -33 -17 -20
-52 -85 -53 -99 0 -5 -3 -8 -7 -8 -5 0 -8 3 -7 6 0 4 -4 10 -11 14 -6 4 -12
17 -13 28 -1 12 -6 22 -11 22 -5 0 -7 3 -3 6 3 4 -2 23 -13 44 -11 21 -16 40
-13 44 4 3 1 6 -5 6 -7 0 -12 7 -12 15 0 8 -5 15 -11 15 -5 0 -8 4 -5 8 3 5
-4 19 -15 30 -11 12 -17 22 -14 22 6 0 -42 56 -70 81 -62 55 -85 72 -135 97
-30 15 -58 32 -62 37 -5 6 -8 4 -8 -5 0 -13 -1 -13 -10 0 -5 8 -10 11 -10 6 0
-5 -7 -3 -15 4 -8 7 -22 10 -30 6 -8 -3 -15 -2 -15 2 0 5 -34 8 -75 8 -41 0
-75 -4 -75 -9z"/>
</g>
</svg>
